<svg xmlns="http://www.w3.org/2000/svg" width="1280" height="800" viewBox="0 0 1280 800" role="img" aria-label="MacJobs job details placeholder">
  <defs>
    <linearGradient id="bg2" x1="0" y1="0" x2="1" y2="1">
      <stop offset="0%" stop-color="#1559b8"/>
      <stop offset="100%" stop-color="#2aa2ea"/>
    </linearGradient>
  </defs>
  <rect width="1280" height="800" fill="url(#bg2)"/>
  <rect x="48" y="48" width="1184" height="704" rx="24" fill="#ffffff" fill-opacity="0.95"/>
  <rect x="48" y="48" width="320" height="704" rx="24" fill="#f4f7fb"/>
  <rect x="88" y="110" width="160" height="26" rx="8" fill="#d4dfef"/>
  <rect x="88" y="165" width="230" height="16" rx="6" fill="#e0e7f2"/>
  <rect x="88" y="195" width="230" height="16" rx="6" fill="#e0e7f2"/>
  <rect x="88" y="225" width="230" height="16" rx="6" fill="#e0e7f2"/>
  <rect x="420" y="106" width="720" height="54" rx="12" fill="#edf4ff"/>
  <rect x="420" y="190" width="220" height="18" rx="7" fill="#dbe8fa"/>
  <rect x="420" y="224" width="360" height="16" rx="6" fill="#edf2f8"/>
  <rect x="420" y="264" width="720" height="34" rx="8" fill="#f5f7fb"/>
  <rect x="420" y="314" width="720" height="34" rx="8" fill="#f5f7fb"/>
  <rect x="420" y="364" width="720" height="34" rx="8" fill="#f5f7fb"/>
  <rect x="420" y="414" width="720" height="34" rx="8" fill="#f5f7fb"/>
  <rect x="420" y="464" width="720" height="34" rx="8" fill="#f5f7fb"/>
  <rect x="420" y="540" width="180" height="44" rx="10" fill="#dceafc"/>
  <rect x="960" y="540" width="180" height="44" rx="10" fill="#fde3e3"/>
  <text x="640" y="715" text-anchor="middle" font-family="-apple-system, BlinkMacSystemFont, Segoe UI, sans-serif" font-size="28" fill="#23456f">MacJobs Job Details Screenshot Placeholder</text>
</svg>
