<svg xmlns="http://www.w3.org/2000/svg" width="1280" height="800" viewBox="0 0 1280 800" role="img" aria-label="MacJobs overview placeholder">
  <defs>
    <linearGradient id="bg" x1="0" y1="0" x2="1" y2="1">
      <stop offset="0%" stop-color="#0f3ea8"/>
      <stop offset="100%" stop-color="#1c8ce3"/>
    </linearGradient>
  </defs>
  <rect width="1280" height="800" fill="url(#bg)"/>
  <rect x="48" y="48" width="1184" height="704" rx="24" fill="#ffffff" fill-opacity="0.95"/>
  <rect x="48" y="48" width="320" height="704" rx="24" fill="#f4f7fb"/>
  <rect x="88" y="110" width="160" height="26" rx="8" fill="#d4dfef"/>
  <rect x="88" y="165" width="230" height="16" rx="6" fill="#e0e7f2"/>
  <rect x="88" y="195" width="230" height="16" rx="6" fill="#e0e7f2"/>
  <rect x="88" y="225" width="230" height="16" rx="6" fill="#e0e7f2"/>
  <rect x="420" y="120" width="350" height="160" rx="16" fill="#eaf2ff"/>
  <rect x="790" y="120" width="350" height="160" rx="16" fill="#ecf7ff"/>
  <rect x="420" y="320" width="720" height="40" rx="10" fill="#f1f5fb"/>
  <rect x="420" y="380" width="720" height="40" rx="10" fill="#f1f5fb"/>
  <rect x="420" y="440" width="720" height="40" rx="10" fill="#f1f5fb"/>
  <text x="640" y="715" text-anchor="middle" font-family="-apple-system, BlinkMacSystemFont, Segoe UI, sans-serif" font-size="28" fill="#23456f">MacJobs Overview Screenshot Placeholder</text>
</svg>
